<svg width="128" height="128" viewBox="0 0 128 128" fill="none" xmlns="http://www.w3.org/2000/svg">
<circle cx="64" cy="64" r="64" fill="white"/>
<g filter="url(#filter0_d_127_169)">
<path d="M66.7578 12C92.2508 12 113 31.8417 113 56.2314C113 74.4263 101.454 90.0868 85.0039 96.8701C84.549 95.1554 84.0322 93.466 83.457 91.8037C89.758 89.0836 95.2008 84.8748 99.3232 79.6484H86.4951C85.2507 82.544 83.7551 85.3483 82.042 88.0518C81.2056 86.0108 80.278 84.0169 79.2656 82.0742C79.6961 81.2732 80.1096 80.4655 80.5 79.6484H77.9424C76.9243 77.8648 75.8322 76.1289 74.6709 74.4443H82.6709C84.4715 69.4228 85.5157 64.1823 85.7822 58.833H60.1016C57.7376 56.9496 55.2538 55.2102 52.6621 53.6299H85.7773C85.5217 48.2805 84.4769 43.0401 82.6816 38.0186H50.6055C49.1199 42.174 48.146 46.4793 47.7119 50.8721C46.0151 50.012 44.2802 49.2163 42.5098 48.4893C42.9655 44.9311 43.737 41.4296 44.8447 38.0186H30.7002C29.6019 39.9973 28.6835 42.0786 27.957 44.2412C26.1538 43.9161 24.3274 43.6577 22.4805 43.4688C28.2207 25.2819 45.8967 12 66.7578 12ZM91.2227 58.833C90.9833 64.1615 90.0746 69.402 88.4316 74.4443H102.815C105.432 69.7298 107.038 64.4374 107.424 58.833H91.2227ZM88.4482 38.0186C90.0858 43.061 90.9887 48.3013 91.2227 53.6299H107.424C107.032 48.0255 105.427 42.7331 102.815 38.0186H88.4482ZM55.1543 18.832C46.684 21.2413 39.3829 26.2216 34.1875 32.8145H46.7754C48.8916 27.871 51.7324 23.1927 55.1543 18.832ZM66.7578 17.2041C65.648 17.2041 64.565 17.2813 63.4824 17.3594C58.9998 22.027 55.415 27.2414 52.7656 32.8145H80.5215C77.8667 27.2363 74.2765 22.0171 69.7939 17.3496C68.7875 17.282 67.7806 17.2041 66.7578 17.2041ZM78.085 18.7646C81.5339 23.146 84.3841 27.8451 86.5166 32.8145H99.3232C94.068 26.1539 86.6694 21.1428 78.085 18.7646Z" fill="url(#paint0_linear_127_169)"/>
</g>
<path d="M15 85.9587C29.8688 85.9587 44.9851 100.721 44.9854 115.484H35.0732C35.0729 105.642 24.9125 95.8005 15 95.8005V85.9587ZM15 66.2751C44.7377 66.2751 64.8103 85.9588 64.8105 115.484H54.8984C54.8982 90.8797 34.8251 76.1179 15 76.1179V66.2751ZM15 46.5916C54.6504 46.5916 84.6355 76.1169 84.6357 115.484H74.7236C74.7234 81.0378 49.694 56.4343 15 56.4343V46.5916Z" fill="#F36C35"/>
<defs>
<filter id="filter0_d_127_169" x="12.4805" y="10" width="110.52" height="104.87" filterUnits="userSpaceOnUse" color-interpolation-filters="sRGB">
<feFlood flood-opacity="0" result="BackgroundImageFix"/>
<feColorMatrix in="SourceAlpha" type="matrix" values="0 0 0 0 0 0 0 0 0 0 0 0 0 0 0 0 0 0 127 0" result="hardAlpha"/>
<feOffset dy="8"/>
<feGaussianBlur stdDeviation="5"/>
<feComposite in2="hardAlpha" operator="out"/>
<feColorMatrix type="matrix" values="0 0 0 0 0 0 0 0 0 0 0 0 0 0 0 0 0 0 0.25 0"/>
<feBlend mode="normal" in2="BackgroundImageFix" result="effect1_dropShadow_127_169"/>
<feBlend mode="normal" in="SourceGraphic" in2="effect1_dropShadow_127_169" result="shape"/>
</filter>
<linearGradient id="paint0_linear_127_169" x1="108" y1="20.5" x2="12.8016" y2="119.564" gradientUnits="userSpaceOnUse">
<stop stop-color="#E5E2E2"/>
<stop offset="0.418534" stop-color="#3305FF"/>
</linearGradient>
</defs>
</svg>
