<svg width="449" height="389" viewBox="0 0 449 389" fill="none" xmlns="http://www.w3.org/2000/svg">
<path d="M26 10H423C431.837 10 439 17.1634 439 26V363C439 371.837 431.837 379 423 379H26C17.1634 379 10 371.837 10 363V26C10 17.1634 17.1634 10 26 10Z" stroke="url(#paint0_linear_3_38)" stroke-width="20"/>
<path d="M423 0C437.359 0 449 11.6406 449 26V65H0V26C0 11.6406 11.6406 0 26 0H423ZM342.596 23C337.296 23 333 27.2533 333 32.5C333 37.7467 337.296 42 342.596 42C347.895 41.9999 352.191 37.7467 352.191 32.5C352.191 27.2533 347.895 23.0001 342.596 23ZM376.5 23C371.201 23 366.904 27.2533 366.904 32.5C366.904 37.7467 371.201 42 376.5 42C381.799 42 386.096 37.7467 386.096 32.5C386.096 27.2533 381.799 23 376.5 23ZM410.404 23C405.105 23.0001 400.809 27.2533 400.809 32.5C400.809 37.7467 405.105 41.9999 410.404 42C415.704 42 420 37.7467 420 32.5C420 27.2533 415.704 23 410.404 23Z" fill="white"/>
<g filter="url(#filter0_d_3_38)">
<path d="M226.824 104C290.223 104 341.824 153.345 341.824 214C341.824 265.152 305.135 308.259 255.606 320.512C255.606 320.508 255.607 320.504 255.607 320.5C255.607 316.005 255.45 311.547 255.141 307.131C276.431 301.196 294.775 288.762 307.811 272.235H275.908C270.649 284.473 263.6 296.064 255.12 306.86C254.645 300.223 253.827 293.681 252.683 287.251C255.77 282.384 258.545 277.371 260.999 272.235H249.368C248.212 267.857 246.902 263.541 245.444 259.294H266.397C270.876 246.806 273.474 233.774 274.137 220.471H226.904C224.118 216.029 221.153 211.712 218.017 207.529H274.123C273.487 194.226 270.889 181.194 266.425 168.706H186.655C186.092 170.28 185.559 171.863 185.056 173.454C176.839 166.855 168.059 160.931 158.797 155.765H177.131C182.394 143.471 189.456 131.837 197.966 120.992C178.969 126.396 162.338 136.998 149.779 151.053C145.604 149.012 141.342 147.12 137 145.386C158.091 120.175 190.519 104 226.824 104ZM287.666 220.471C287.071 233.722 284.81 246.754 280.725 259.294H316.497C323.005 247.569 326.995 234.408 327.956 220.471H287.666ZM280.766 168.706C284.838 181.246 287.084 194.278 287.666 207.529H327.956C326.982 193.592 322.991 180.431 316.497 168.706H280.766ZM226.824 116.941C224.064 116.941 221.372 117.135 218.68 117.329C207.531 128.937 198.615 141.905 192.026 155.765H261.054C254.451 141.892 245.521 128.912 234.373 117.304C231.87 117.135 229.368 116.941 226.824 116.941ZM254.992 120.823C263.57 131.72 270.659 143.406 275.963 155.765H307.811C294.741 139.2 276.341 126.737 254.992 120.823Z" fill="url(#paint1_linear_3_38)"/>
</g>
<path fill-rule="evenodd" clip-rule="evenodd" d="M54 297.449V326H82.7545C82.7545 310.227 69.8868 297.449 54 297.449ZM54 238.196V266.746C82.7545 266.746 112.228 295.295 112.228 323.844H140.982C140.982 281.02 97.1317 238.196 54 238.196ZM54 124V152.551C154.641 152.551 227.245 223.922 227.245 323.844H256C256 209.647 169.018 124 54 124ZM198.491 323.844H169.737C169.737 252.471 111.509 209.649 54 209.649V181.098C140.263 181.098 198.491 238.197 198.491 323.844Z" fill="#F1EEE9"/>
<defs>
<filter id="filter0_d_3_38" x="131" y="102" width="216.824" height="228.512" filterUnits="userSpaceOnUse" color-interpolation-filters="sRGB">
<feFlood flood-opacity="0" result="BackgroundImageFix"/>
<feColorMatrix in="SourceAlpha" type="matrix" values="0 0 0 0 0 0 0 0 0 0 0 0 0 0 0 0 0 0 127 0" result="hardAlpha"/>
<feOffset dy="4"/>
<feGaussianBlur stdDeviation="3"/>
<feComposite in2="hardAlpha" operator="out"/>
<feColorMatrix type="matrix" values="0 0 0 0 0 0 0 0 0 0 0 0 0 0 0 0 0 0 0.25 0"/>
<feBlend mode="normal" in2="BackgroundImageFix" result="effect1_dropShadow_3_38"/>
<feBlend mode="normal" in="SourceGraphic" in2="effect1_dropShadow_3_38" result="shape"/>
</filter>
<linearGradient id="paint0_linear_3_38" x1="429.5" y1="70" x2="23" y2="367.5" gradientUnits="userSpaceOnUse">
<stop stop-color="white"/>
<stop offset="1" stop-color="#3D5E67"/>
</linearGradient>
<linearGradient id="paint1_linear_3_38" x1="424.607" y1="77" x2="19.6074" y2="374.5" gradientUnits="userSpaceOnUse">
<stop stop-color="#D9D9D9"/>
<stop offset="1" stop-color="#3E5F68"/>
</linearGradient>
</defs>
</svg>
