<svg width="512" height="512" viewBox="0 0 512 512" fill="none" xmlns="http://www.w3.org/2000/svg">
<path d="M396.42 498H14V115.58H396.42V498ZM55.8271 474.099H326.21V466.099H55.8271V474.099ZM90.1855 437.716V445.716H260.481V437.716H90.1855ZM90.1855 417.333H306.79V409.333H90.1855V417.333ZM90.1855 388.95H232.1V380.95H90.1855V388.95ZM90.1855 360.568H279.901V352.568H90.1855V360.568ZM55.8271 332.185H126.037V324.185H55.8271V332.185ZM55.8271 303.803H354.593V295.803H55.8271V303.803ZM55.8271 275.42H260.481V267.42H55.8271V275.42ZM90.1855 247.037H326.21V239.037H90.1855V247.037ZM90.1855 218.655H306.79V210.655H90.1855V218.655ZM55.8271 190.272H232.099V182.272H55.8271V190.272ZM55.8271 161.889H260.481V153.889H55.8271V161.889Z" fill="#02DF82"/>
<path d="M14 115.58L115.58 14H498V396.42L396.42 498H14V115.58Z" fill="#A28F8F" fill-opacity="0.65"/>
<path d="M115.58 396.42H498L396.42 498H14L115.58 396.42Z" fill="black" fill-opacity="0.23"/>
<rect x="115.58" y="14" width="382.42" height="382.42" fill="#0B4539"/>
<rect x="135" y="46.8643" width="224.074" height="122.494" rx="8" fill="#22C795"/>
<rect x="374.012" y="46.8643" width="104.568" height="122.494" rx="8" fill="#22C795"/>
<rect x="135" y="184.296" width="224.074" height="122.494" rx="8" fill="#22C795"/>
<rect width="224.074" height="41.8272" rx="8" transform="matrix(1 0 0 -1 135 363.556)" fill="#22C795"/>
<rect x="374.012" y="184.296" width="104.568" height="179.259" rx="8" fill="#22C795"/>
</svg>
