<svg width="846" height="846" viewBox="0 0 846 846" fill="none" xmlns="http://www.w3.org/2000/svg">
<path d="M37 87C37 49.4447 67.4446 19 105 19H739C776.555 19 807 49.4446 807 87V754C807 791.555 776.555 822 739 822H105C67.4446 822 37 791.555 37 754V87Z" fill="#343232"/>
<path d="M36 75C36 41.8629 62.8629 15 96 15H739C772.137 15 799 41.8629 799 75V751C799 784.137 772.137 811 739 811H96C62.8629 811 36 784.137 36 751V75Z" fill="url(#paint0_radial_198_183)"/>
<path d="M51 142.001C51 115.491 72.4903 94.0005 99 94.0005H736C762.51 94.0005 784 115.491 784 142V747C784 773.51 762.51 795 736 795H99C72.4903 795 51 773.51 51 747V142.001Z" fill="#161616"/>
<circle cx="621" cy="61.9985" r="15" fill="#02C94A" stroke="#41D675" stroke-width="2"/>
<mask id="path-5-inside-1_198_183" fill="white">
<path fill-rule="evenodd" clip-rule="evenodd" d="M624.146 57.5579C624.698 57.5579 625.146 58.0056 625.146 58.5578L625.146 62.558C625.146 63.1102 624.699 63.5577 624.146 63.5579C623.594 63.5579 623.147 63.1103 623.147 62.558L623.147 61.0927L622.337 61.902C621.917 62.322 621.236 62.3214 620.816 61.9013C620.396 61.4812 620.396 60.8009 620.816 60.3808L621.64 59.557L620.146 59.5577C619.594 59.5577 619.146 59.1101 619.146 58.5578C619.146 58.0056 619.594 57.5579 620.146 57.5579L624.146 57.5579Z"/>
</mask>
<path fill-rule="evenodd" clip-rule="evenodd" d="M624.146 57.5579C624.698 57.5579 625.146 58.0056 625.146 58.5578L625.146 62.558C625.146 63.1102 624.699 63.5577 624.146 63.5579C623.594 63.5579 623.147 63.1103 623.147 62.558L623.147 61.0927L622.337 61.902C621.917 62.322 621.236 62.3214 620.816 61.9013C620.396 61.4812 620.396 60.8009 620.816 60.3808L621.64 59.557L620.146 59.5577C619.594 59.5577 619.146 59.1101 619.146 58.5578C619.146 58.0056 619.594 57.5579 620.146 57.5579L624.146 57.5579Z" fill="#186902"/>
<path d="M625.146 58.5578L625.246 58.5578L625.246 58.5577L625.146 58.5578ZM625.146 62.558H625.246L625.246 62.558L625.146 62.558ZM624.146 63.5579V63.6579H624.147L624.146 63.5579ZM623.147 62.558H623.247H623.147ZM623.147 61.0927H623.247L623.247 60.8513L623.076 61.022L623.147 61.0927ZM622.337 61.902L622.408 61.9728L622.408 61.9727L622.337 61.902ZM620.816 61.9013L620.745 61.972L620.745 61.9721L620.816 61.9013ZM620.816 60.3808L620.745 60.3101L620.745 60.3101L620.816 60.3808ZM621.64 59.557L621.711 59.6277L621.881 59.4569L621.64 59.457L621.64 59.557ZM620.146 59.5577V59.6577L620.146 59.6577L620.146 59.5577ZM619.146 58.5578L619.046 58.5577L619.046 58.5578L619.146 58.5578ZM624.146 57.5579L624.146 57.6579C624.643 57.6579 625.046 58.0608 625.046 58.5578L625.146 58.5578L625.246 58.5577C625.245 57.9504 624.753 57.4579 624.146 57.4579L624.146 57.5579ZM625.146 58.5578L625.046 58.5578L625.046 62.5581L625.146 62.558L625.246 62.558L625.246 58.5578L625.146 58.5578ZM625.146 62.558H625.046C625.046 63.0549 624.643 63.4577 624.146 63.4579L624.146 63.5579L624.147 63.6579C624.754 63.6576 625.246 63.1654 625.246 62.558H625.146ZM624.146 63.5579V63.4579C623.649 63.4579 623.247 63.0551 623.247 62.558H623.147H623.047C623.047 63.1656 623.539 63.6579 624.146 63.6579V63.5579ZM623.147 62.558H623.247L623.247 61.0927H623.147H623.047L623.047 62.558H623.147ZM623.147 61.0927L623.076 61.022L622.267 61.8313L622.337 61.902L622.408 61.9727L623.217 61.1634L623.147 61.0927ZM622.337 61.902L622.267 61.8313C621.886 62.2122 621.268 62.2117 620.887 61.8306L620.816 61.9013L620.745 61.9721C621.204 62.4311 621.949 62.4318 622.408 61.9728L622.337 61.902ZM620.816 61.9013L620.887 61.8306C620.506 61.4496 620.506 60.8325 620.887 60.4515L620.816 60.3808L620.745 60.3101C620.286 60.7692 620.286 61.5129 620.745 61.972L620.816 61.9013ZM620.816 60.3808L620.887 60.4515L621.711 59.6277L621.64 59.557L621.569 59.4863L620.745 60.3101L620.816 60.3808ZM621.64 59.557L621.64 59.457L620.146 59.4577L620.146 59.5577L620.146 59.6577L621.64 59.657L621.64 59.557ZM620.146 59.5577L620.146 59.4577C619.649 59.4577 619.246 59.0548 619.246 58.5578L619.146 58.5578L619.046 58.5578C619.046 59.1653 619.539 59.6577 620.146 59.6577V59.5577ZM619.146 58.5578L619.246 58.5578C619.246 58.0608 619.649 57.6579 620.146 57.6579L620.146 57.5579L620.146 57.4579C619.539 57.4579 619.047 57.9504 619.046 58.5577L619.146 58.5578ZM620.146 57.5579L620.146 57.6579L624.146 57.6579L624.146 57.5579L624.146 57.4579L620.146 57.4579L620.146 57.5579Z" fill="#184B00" mask="url(#path-5-inside-1_198_183)"/>
<mask id="path-7-inside-2_198_183" fill="white">
<path fill-rule="evenodd" clip-rule="evenodd" d="M617.104 66.3093C616.552 66.3093 616.104 65.8615 616.104 65.3094L616.104 61.3091C616.104 60.757 616.551 60.3095 617.104 60.3093C617.656 60.3093 618.103 60.7569 618.103 61.3091L618.103 62.7745L618.913 61.9652C619.333 61.5452 620.014 61.5458 620.434 61.9658C620.854 62.386 620.854 63.0663 620.434 63.4864L619.61 64.3102L621.104 64.3095C621.656 64.3095 622.104 64.7571 622.104 65.3094C622.104 65.8616 621.656 66.3093 621.104 66.3093L617.104 66.3093Z"/>
</mask>
<path fill-rule="evenodd" clip-rule="evenodd" d="M617.104 66.3093C616.552 66.3093 616.104 65.8615 616.104 65.3094L616.104 61.3091C616.104 60.757 616.551 60.3095 617.104 60.3093C617.656 60.3093 618.103 60.7569 618.103 61.3091L618.103 62.7745L618.913 61.9652C619.333 61.5452 620.014 61.5458 620.434 61.9658C620.854 62.386 620.854 63.0663 620.434 63.4864L619.61 64.3102L621.104 64.3095C621.656 64.3095 622.104 64.7571 622.104 65.3094C622.104 65.8616 621.656 66.3093 621.104 66.3093L617.104 66.3093Z" fill="#186902"/>
<path d="M616.104 65.3094L616.004 65.3094L616.004 65.3094L616.104 65.3094ZM616.104 61.3091L616.004 61.3091L616.004 61.3092L616.104 61.3091ZM617.104 60.3093L617.104 60.2093L617.103 60.2093L617.104 60.3093ZM618.103 61.3091L618.203 61.3091L618.103 61.3091ZM618.103 62.7745L618.003 62.7745L618.003 63.0159L618.174 62.8452L618.103 62.7745ZM618.913 61.9652L618.842 61.8944L618.842 61.8944L618.913 61.9652ZM620.434 61.9658L620.505 61.8952L620.505 61.8951L620.434 61.9658ZM620.434 63.4864L620.505 63.5571L620.505 63.5571L620.434 63.4864ZM619.61 64.3102L619.539 64.2395L619.369 64.4103L619.61 64.4102L619.61 64.3102ZM621.104 64.3095L621.104 64.2095L621.104 64.2095L621.104 64.3095ZM622.104 65.3094L622.204 65.3094L622.204 65.3094L622.104 65.3094ZM617.104 66.3093L617.104 66.2093C616.607 66.2093 616.204 65.8063 616.204 65.3094L616.104 65.3094L616.004 65.3094C616.005 65.9168 616.497 66.4093 617.104 66.4093L617.104 66.3093ZM616.104 65.3094L616.204 65.3094L616.204 61.3091L616.104 61.3091L616.004 61.3092L616.004 65.3094L616.104 65.3094ZM616.104 61.3091L616.204 61.3091C616.204 60.8123 616.607 60.4095 617.104 60.4093L617.104 60.3093L617.103 60.2093C616.496 60.2095 616.004 60.7017 616.004 61.3091L616.104 61.3091ZM617.104 60.3093L617.104 60.4093C617.601 60.4093 618.003 60.8121 618.003 61.3091L618.103 61.3091L618.203 61.3091C618.203 60.7016 617.711 60.2093 617.104 60.2093L617.104 60.3093ZM618.103 61.3091L618.003 61.3091L618.003 62.7745L618.103 62.7745L618.203 62.7745L618.203 61.3091L618.103 61.3091ZM618.103 62.7745L618.174 62.8452L618.983 62.0359L618.913 61.9652L618.842 61.8944L618.033 62.7038L618.103 62.7745ZM618.913 61.9652L618.983 62.0359C619.364 61.655 619.982 61.6554 620.363 62.0366L620.434 61.9658L620.505 61.8951C620.046 61.4361 619.301 61.4353 618.842 61.8944L618.913 61.9652ZM620.434 61.9658L620.363 62.0365C620.744 62.4176 620.744 63.0347 620.363 63.4157L620.434 63.4864L620.505 63.5571C620.964 63.098 620.964 62.3543 620.505 61.8952L620.434 61.9658ZM620.434 63.4864L620.363 63.4157L619.539 64.2395L619.61 64.3102L619.681 64.3809L620.505 63.5571L620.434 63.4864ZM619.61 64.3102L619.61 64.4102L621.104 64.4095L621.104 64.3095L621.104 64.2095L619.61 64.2102L619.61 64.3102ZM621.104 64.3095L621.104 64.4095C621.601 64.4095 622.004 64.8124 622.004 65.3094L622.104 65.3094L622.204 65.3094C622.204 64.7019 621.711 64.2095 621.104 64.2095L621.104 64.3095ZM622.104 65.3094L622.004 65.3094C622.004 65.8063 621.601 66.2093 621.104 66.2093L621.104 66.3093L621.104 66.4093C621.711 66.4093 622.203 65.9168 622.204 65.3094L622.104 65.3094ZM621.104 66.3093L621.104 66.2093L617.104 66.2093L617.104 66.3093L617.104 66.4093L621.104 66.4093L621.104 66.3093Z" fill="#184B00" mask="url(#path-7-inside-2_198_183)"/>
<circle cx="717" cy="61.9985" r="15" fill="#F50B14" stroke="#FA464B" stroke-width="2"/>
<mask id="path-10-inside-3_198_183" fill="white">
<path fill-rule="evenodd" clip-rule="evenodd" d="M714.237 66.105C713.866 66.4761 713.264 66.4761 712.893 66.105C712.522 65.7338 712.522 65.1314 712.893 64.7602L715.647 62.0073L712.893 59.2534C712.522 58.8823 712.522 58.2798 712.893 57.9087C713.264 57.5375 713.866 57.5375 714.237 57.9087L716.991 60.6626L719.745 57.9087C720.116 57.5378 720.718 57.5376 721.089 57.9087C721.46 58.2797 721.46 58.8813 721.089 59.2524L718.335 62.0073L721.089 64.7612C721.46 65.1324 721.46 65.7339 721.089 66.105C720.718 66.476 720.116 66.4758 719.745 66.105L716.991 63.352L714.237 66.105Z"/>
</mask>
<path fill-rule="evenodd" clip-rule="evenodd" d="M714.237 66.105C713.866 66.4761 713.264 66.4761 712.893 66.105C712.522 65.7338 712.522 65.1314 712.893 64.7602L715.647 62.0073L712.893 59.2534C712.522 58.8823 712.522 58.2798 712.893 57.9087C713.264 57.5375 713.866 57.5375 714.237 57.9087L716.991 60.6626L719.745 57.9087C720.116 57.5378 720.718 57.5376 721.089 57.9087C721.46 58.2797 721.46 58.8813 721.089 59.2524L718.335 62.0073L721.089 64.7612C721.46 65.1324 721.46 65.7339 721.089 66.105C720.718 66.476 720.116 66.4758 719.745 66.105L716.991 63.352L714.237 66.105Z" fill="#AE0001"/>
<path d="M714.237 66.105L714.167 66.0342L714.167 66.0343L714.237 66.105ZM712.893 66.105L712.822 66.1757L712.822 66.1757L712.893 66.105ZM712.893 64.7602L712.822 64.6895L712.822 64.6895L712.893 64.7602ZM715.647 62.0073L715.717 62.078L715.788 62.0073L715.717 61.9366L715.647 62.0073ZM712.893 59.2534L712.822 59.3241L712.893 59.2534ZM712.893 57.9087L712.822 57.838V57.838L712.893 57.9087ZM714.237 57.9087L714.308 57.838L714.237 57.9087ZM716.991 60.6626L716.921 60.7333L716.991 60.804L717.062 60.7333L716.991 60.6626ZM719.745 57.9087L719.675 57.8379L719.675 57.838L719.745 57.9087ZM721.089 57.9087L721.16 57.838L721.16 57.838L721.089 57.9087ZM721.089 59.2524L721.16 59.3231L721.16 59.3231L721.089 59.2524ZM718.335 62.0073L718.264 61.9366L718.194 62.0073L718.264 62.078L718.335 62.0073ZM721.089 64.7612L721.16 64.6905L721.16 64.6905L721.089 64.7612ZM721.089 66.105L721.16 66.1757L721.16 66.1757L721.089 66.105ZM719.745 66.105L719.675 66.1757L719.675 66.1757L719.745 66.105ZM716.991 63.352L717.062 63.2813L716.991 63.2106L716.921 63.2813L716.991 63.352ZM714.237 66.105L714.167 66.0343C713.835 66.3663 713.295 66.3663 712.963 66.0343L712.893 66.105L712.822 66.1757C713.232 66.5858 713.898 66.5859 714.308 66.1757L714.237 66.105ZM712.893 66.105L712.963 66.0343C712.631 65.7022 712.631 65.163 712.963 64.8309L712.893 64.7602L712.822 64.6895C712.412 65.0997 712.412 65.7655 712.822 66.1757L712.893 66.105ZM712.893 64.7602L712.963 64.831L715.717 62.078L715.647 62.0073L715.576 61.9366L712.822 64.6895L712.893 64.7602ZM715.647 62.0073L715.717 61.9366L712.963 59.1827L712.893 59.2534L712.822 59.3241L715.576 62.078L715.647 62.0073ZM712.893 59.2534L712.963 59.1827C712.631 58.8506 712.631 58.3115 712.963 57.9794L712.893 57.9087L712.822 57.838C712.412 58.2482 712.412 58.9139 712.822 59.3241L712.893 59.2534ZM712.893 57.9087L712.963 57.9794C713.295 57.6473 713.835 57.6473 714.167 57.9794L714.237 57.9087L714.308 57.838C713.898 57.4278 713.232 57.4278 712.822 57.838L712.893 57.9087ZM714.237 57.9087L714.167 57.9794L716.921 60.7333L716.991 60.6626L717.062 60.5919L714.308 57.838L714.237 57.9087ZM716.991 60.6626L717.062 60.7333L719.816 57.9794L719.745 57.9087L719.675 57.838L716.921 60.5919L716.991 60.6626ZM719.745 57.9087L719.816 57.9794C720.148 57.6475 720.686 57.6474 721.018 57.9794L721.089 57.9087L721.16 57.838C720.75 57.4278 720.085 57.4281 719.675 57.8379L719.745 57.9087ZM721.089 57.9087L721.018 57.9794C721.35 58.3114 721.35 58.8496 721.018 59.1817L721.089 59.2524L721.16 59.3231C721.57 58.9129 721.57 58.2481 721.16 57.838L721.089 57.9087ZM721.089 59.2524L721.018 59.1817L718.264 61.9366L718.335 62.0073L718.406 62.078L721.16 59.3231L721.089 59.2524ZM718.335 62.0073L718.264 62.078L721.018 64.8319L721.089 64.7612L721.16 64.6905L718.406 61.9366L718.335 62.0073ZM721.089 64.7612L721.018 64.8319C721.35 65.164 721.35 65.7023 721.018 66.0343L721.089 66.105L721.16 66.1757C721.57 65.7656 721.57 65.1007 721.16 64.6905L721.089 64.7612ZM721.089 66.105L721.018 66.0343C720.686 66.3662 720.148 66.3661 719.816 66.0342L719.745 66.105L719.675 66.1757C720.085 66.5856 720.75 66.5858 721.16 66.1757L721.089 66.105ZM719.745 66.105L719.816 66.0342L717.062 63.2813L716.991 63.352L716.921 63.4228L719.675 66.1757L719.745 66.105ZM716.991 63.352L716.921 63.2813L714.167 66.0342L714.237 66.105L714.308 66.1757L717.062 63.4228L716.991 63.352Z" fill="#890000" mask="url(#path-10-inside-3_198_183)"/>
<circle cx="669" cy="61.9985" r="15" transform="rotate(-180 669 61.9985)" fill="#FEC303" stroke="#FECF47" stroke-width="2"/>
<rect x="674.745" y="63.1526" width="11.4906" height="1.8007" rx="0.900348" transform="rotate(-180 674.745 63.1526)" fill="#A26E01" stroke="#7C5400" stroke-width="0.1"/>
<path d="M417.286 81.0005C612.867 81.0006 772.054 233.01 772.054 419.863C772.054 572.476 665.889 701.846 520.396 744.133C519.607 730.669 518.037 717.091 515.694 703.472C576.668 684.11 629.185 647.294 667.126 599.261H568.709C554.448 632.396 535.927 663.994 513.889 693.741C510.414 676.264 505.673 658.749 499.68 641.347C508.16 627.666 515.844 613.619 522.715 599.261H482.613C476.31 585.8 469.242 572.487 461.416 559.395H539.368C553.183 520.924 561.196 480.779 563.241 439.796H359.519C341.966 424.949 323.698 411.652 304.937 399.93H563.2C561.239 358.948 553.224 318.802 539.451 280.332H293.367C281.757 312.76 274.21 346.378 270.976 380.684C257.788 373.949 244.433 367.959 230.98 362.72C234.438 334.714 240.444 307.157 249.168 280.332H140.65C130.787 298.078 122.798 316.892 116.87 336.534C102.246 335.496 87.7469 335.377 73.4648 336.183C112.568 189.668 251.887 81.0005 417.286 81.0005ZM604.979 439.796C603.142 480.619 596.172 520.765 583.567 559.395H693.921C713.997 523.276 726.309 482.732 729.272 439.796H604.979ZM583.692 280.332C596.255 318.962 603.184 359.107 604.979 399.93H729.272C726.267 356.994 713.955 316.45 693.921 280.332H583.692ZM328.26 133.345C263.275 151.803 207.263 189.955 167.404 240.465H263.984C280.22 202.593 302.007 166.753 328.26 133.345ZM417.286 120.867C408.772 120.867 400.466 121.465 392.16 122.063C357.769 157.823 330.264 197.769 309.938 240.465H522.882C502.514 197.729 474.967 157.743 440.575 121.983C432.854 121.465 425.133 120.867 417.286 120.867ZM504.183 132.827C530.644 166.394 552.515 202.393 568.876 240.465H667.126C626.808 189.437 570.044 151.046 504.183 132.827Z" fill="#2D2C2C"/>
<path d="M414.286 79.0005C609.867 79.0006 769.054 231.01 769.054 417.863C769.054 570.476 662.889 699.846 517.396 742.133C516.607 728.669 515.037 715.091 512.694 701.472C573.668 682.11 626.185 645.294 664.126 597.261H565.709C551.448 630.396 532.927 661.994 510.889 691.741C507.414 674.264 502.673 656.749 496.68 639.347C505.16 625.666 512.844 611.619 519.715 597.261H479.613C473.31 583.8 466.242 570.487 458.416 557.395H536.368C550.183 518.924 558.196 478.779 560.241 437.796H356.519C338.966 422.949 320.698 409.652 301.937 397.93H560.2C558.239 356.948 550.224 316.802 536.451 278.332H290.367C278.757 310.76 271.21 344.378 267.976 378.684C254.788 371.949 241.433 365.959 227.98 360.72C231.438 332.714 237.444 305.157 246.168 278.332H137.65C127.787 296.078 119.798 314.892 113.87 334.534C99.2462 333.496 84.7469 333.377 70.4648 334.183C109.568 187.668 248.887 79.0005 414.286 79.0005ZM601.979 437.796C600.142 478.619 593.172 518.765 580.567 557.395H690.921C710.997 521.276 723.309 480.732 726.272 437.796H601.979ZM580.692 278.332C593.255 316.962 600.184 357.107 601.979 397.93H726.272C723.267 354.994 710.955 314.45 690.921 278.332H580.692ZM325.26 131.345C260.275 149.803 204.263 187.955 164.404 238.465H260.984C277.22 200.593 299.007 164.753 325.26 131.345ZM414.286 118.867C405.772 118.867 397.466 119.465 389.16 120.063C354.769 155.823 327.264 195.769 306.938 238.465H519.882C499.514 195.729 471.967 155.743 437.575 119.983C429.854 119.465 422.133 118.867 414.286 118.867ZM501.183 130.827C527.644 164.394 549.515 200.393 565.876 238.465H664.126C623.808 187.437 567.044 149.046 501.183 130.827Z" fill="url(#paint1_linear_198_183)"/>
<path d="M34.4639 615.284C133.752 615.284 234.695 713.643 234.695 812H168.503C168.503 746.429 100.656 680.859 34.4639 680.859V615.284ZM34.4639 484.142C233.041 484.142 367.079 615.286 367.079 812H300.888C300.888 648.072 166.848 549.717 34.4639 549.717V484.142ZM34.4639 353C299.233 353 499.464 549.715 499.464 812H433.271C433.271 582.5 266.137 418.576 34.4639 418.576V353Z" fill="#2D2C2C"/>
<path fill-rule="evenodd" clip-rule="evenodd" d="M34.4639 611.749C133.31 611.749 233.805 709.892 233.805 808.033H167.907C167.907 742.605 100.361 677.179 34.4639 677.179V611.749ZM34.4639 480.896C232.157 480.896 365.599 611.751 365.6 808.033H299.703C299.703 644.464 166.259 546.327 34.4639 546.327V480.896ZM34.4639 350.042C298.054 350.042 497.395 546.324 497.396 808.033H431.497C431.497 579.037 265.106 415.473 34.4639 415.473V350.042Z" fill="#F36C35"/>
<defs>
<radialGradient id="paint0_radial_198_183" cx="0" cy="0" r="1" gradientTransform="matrix(50.5809 865.706 -829.816 53.3665 417.5 413)" gradientUnits="userSpaceOnUse">
<stop stop-color="#F36C35"/>
<stop offset="1" stop-color="#271209"/>
</radialGradient>
<linearGradient id="paint1_linear_198_183" x1="426.986" y1="79.0005" x2="426.986" y2="725.727" gradientUnits="userSpaceOnUse">
<stop stop-color="#F1F7F7"/>
<stop offset="1" stop-color="#8D9191"/>
</linearGradient>
</defs>
</svg>
