<svg width="804" height="804" viewBox="0 0 804 804" fill="none" xmlns="http://www.w3.org/2000/svg">
<path d="M17 98C17 60.4446 47.4446 30 85 30H719C756.555 30 787 60.4446 787 98V710C787 747.555 756.555 778 719 778H85C47.4446 778 17 747.555 17 710V98Z" fill="#343232"/>
<path d="M16 82C16 48.8629 42.8629 22 76 22H719C752.137 22 779 48.8629 779 82V703C779 736.137 752.137 763 719 763H76C42.8629 763 16 736.137 16 703V82Z" fill="url(#paint0_radial_203_287)"/>
<path d="M30.5361 94C30.5361 67.4904 52.0265 46 78.5361 46H715.536C742.046 46 763.536 67.4903 763.536 94V699C763.536 725.51 742.046 747 715.536 747H78.5361C52.0264 747 30.5361 725.51 30.5361 699V94Z" fill="#161616"/>
<path d="M396.822 33C592.403 33.0001 751.59 185.01 751.59 371.862C751.59 524.476 645.425 653.845 499.932 696.133C499.143 682.669 497.574 669.091 495.23 655.472C556.204 636.109 608.721 599.293 646.662 551.261H548.245C533.984 584.396 515.463 615.993 493.425 645.74C489.95 628.264 485.209 610.748 479.216 593.347C487.696 579.665 495.38 565.619 502.251 551.261H462.149C455.846 537.8 448.778 524.486 440.952 511.395H518.904C532.719 472.924 540.732 432.778 542.777 391.796H339.055C321.502 376.949 303.234 363.652 284.473 351.93H542.736C540.775 310.947 532.761 270.802 518.987 232.331H272.903C261.293 264.759 253.746 298.377 250.512 332.684C237.324 325.949 223.969 319.959 210.517 314.72C213.974 286.713 219.98 259.157 228.704 232.331H120.187C110.323 250.077 102.334 268.892 96.4062 288.533C81.7824 287.496 67.283 287.376 53.001 288.183C92.1039 141.667 231.424 33 396.822 33ZM584.515 391.796C582.678 432.619 575.708 472.764 563.104 511.395H673.457C693.533 475.276 705.845 434.732 708.809 391.796H584.515ZM563.229 232.331C575.791 270.961 582.72 311.107 584.515 351.93H708.809C705.804 308.994 693.491 268.45 673.457 232.331H563.229ZM307.796 85.3447C242.811 103.803 186.8 141.954 146.94 192.465H243.521C259.756 154.592 281.543 118.752 307.796 85.3447ZM396.822 72.8662C388.308 72.8662 380.002 73.4645 371.696 74.0625C337.305 109.822 309.8 149.768 289.474 192.465H502.418C482.05 149.728 454.503 109.742 420.111 73.9824C412.39 73.4642 404.669 72.8662 396.822 72.8662ZM483.719 84.8262C510.18 118.394 532.051 154.393 548.412 192.465H646.662C606.344 141.436 549.58 103.045 483.719 84.8262Z" fill="#2D2C2C"/>
<path d="M393.822 31C589.403 31.0001 748.59 183.01 748.59 369.862C748.59 522.476 642.425 651.845 496.932 694.133C496.143 680.669 494.574 667.091 492.23 653.472C553.204 634.109 605.721 597.293 643.662 549.261H545.245C530.984 582.396 512.463 613.993 490.425 643.74C486.95 626.264 482.209 608.748 476.216 591.347C484.696 577.665 492.38 563.619 499.251 549.261H459.149C452.846 535.8 445.778 522.486 437.952 509.395H515.904C529.719 470.924 537.732 430.778 539.777 389.796H336.055C318.502 374.949 300.234 361.652 281.473 349.93H539.736C537.775 308.947 529.761 268.802 515.987 230.331H269.903C258.293 262.759 250.746 296.377 247.512 330.684C234.324 323.949 220.969 317.959 207.517 312.72C210.974 284.713 216.98 257.157 225.704 230.331H117.187C107.323 248.077 99.3338 266.892 93.4062 286.533C78.7824 285.496 64.283 285.376 50.001 286.183C89.1039 139.667 228.424 31 393.822 31ZM581.515 389.796C579.678 430.619 572.708 470.764 560.104 509.395H670.457C690.533 473.276 702.845 432.732 705.809 389.796H581.515ZM560.229 230.331C572.791 268.961 579.72 309.107 581.515 349.93H705.809C702.804 306.994 690.491 266.45 670.457 230.331H560.229ZM304.796 83.3447C239.811 101.803 183.8 139.954 143.94 190.465H240.521C256.756 152.592 278.543 116.752 304.796 83.3447ZM393.822 70.8662C385.308 70.8662 377.002 71.4645 368.696 72.0625C334.305 107.822 306.8 147.768 286.474 190.465H499.418C479.05 147.728 451.503 107.742 417.111 71.9824C409.39 71.4642 401.669 70.8662 393.822 70.8662ZM480.719 82.8262C507.18 116.394 529.051 152.393 545.412 190.465H643.662C603.344 139.436 546.58 101.045 480.719 82.8262Z" fill="url(#paint1_linear_203_287)"/>
<path d="M14 567.283C113.288 567.283 214.231 665.643 214.231 764H148.039C148.039 698.428 80.1922 632.858 14 632.858V567.283ZM14 436.142C212.577 436.142 346.615 567.286 346.615 764H280.424C280.424 600.071 146.384 501.717 14 501.717V436.142ZM14 305C278.769 305 479 501.714 479 764H412.808C412.808 534.5 245.673 370.575 14 370.575V305Z" fill="#2D2C2C"/>
<path d="M14 563.748C112.846 563.748 213.341 661.891 213.341 760.032H147.443C147.443 694.605 79.8976 629.179 14 629.179V563.748ZM14 432.896C211.693 432.896 345.136 563.751 345.136 760.032H279.239C279.239 596.464 145.795 498.326 14 498.326V432.896ZM14 302.042C277.591 302.042 476.932 498.323 476.932 760.032H411.033C411.033 531.037 244.642 367.473 14 367.473V302.042Z" fill="#F36C35"/>
<defs>
<radialGradient id="paint0_radial_203_287" cx="0" cy="0" r="1" gradientTransform="matrix(50.5809 805.89 -829.816 49.6791 397.5 392.5)" gradientUnits="userSpaceOnUse">
<stop stop-color="#F36C35"/>
<stop offset="1" stop-color="#271209"/>
</radialGradient>
<linearGradient id="paint1_linear_203_287" x1="406.522" y1="31" x2="406.522" y2="677.726" gradientUnits="userSpaceOnUse">
<stop stop-color="#F1F7F7"/>
<stop offset="1" stop-color="#8D9191"/>
</linearGradient>
</defs>
</svg>
