<svg width="389" height="389" viewBox="0 0 389 389" fill="none" xmlns="http://www.w3.org/2000/svg">
<path d="M22.5254 10H366.475C372.094 10.0001 379 15.7688 379 26V363C379 373.231 372.094 379 366.475 379H22.5254C16.9062 379 10 373.231 10 363V26C10 15.7688 16.9062 10.0002 22.5254 10Z" stroke="url(#paint0_linear_3_38)" stroke-width="20"/>
<path d="M366.475 0C378.915 0.000134744 389 11.6407 389 26V65H0V26C0 11.6407 10.0849 0.00013758 22.5254 0H366.475ZM279.596 23C274.296 23 270 27.2533 270 32.5C270 37.7467 274.296 42 279.596 42C284.895 41.9999 289.191 37.7467 289.191 32.5C289.191 27.2533 284.895 23.0001 279.596 23ZM313.5 23C308.201 23 303.904 27.2533 303.904 32.5C303.904 37.7467 308.201 42 313.5 42C318.799 42 323.096 37.7467 323.096 32.5C323.096 27.2533 318.799 23 313.5 23ZM347.404 23C342.105 23.0001 337.809 27.2533 337.809 32.5C337.809 37.7467 342.105 41.9999 347.404 42C352.704 42 357 37.7467 357 32.5C357 27.2533 352.704 23 347.404 23Z" fill="white"/>
<g filter="url(#filter0_d_3_38)">
<path d="M202.139 52C276.089 52 336.277 109.557 336.277 180.307C336.277 239.343 294.379 289.191 237.531 304.079C234.845 293.516 231.357 283.272 227.138 273.417C232.87 265.383 237.832 256.96 242.002 248.233H214.276C211.173 243.053 207.852 238.017 204.327 233.139H248.298C253.521 218.572 256.552 203.372 257.325 187.854H159.825C150.666 180.989 140.927 174.854 130.695 169.537C131.579 155.19 134.153 141.084 138.572 127.475H97.542C93.1329 135.418 89.7161 143.928 87.4053 152.852C82.3198 151.518 77.159 150.371 71.9307 149.417C86.4223 93.5392 139.303 52 202.139 52ZM259.393 248.233C253.191 262.664 244.858 276.325 234.821 289.035C259.803 282.152 281.327 267.6 296.604 248.233H259.393ZM273.106 187.854C272.412 203.311 269.777 218.512 265.011 233.139H306.735C314.326 219.463 318.981 204.112 320.102 187.854H273.106ZM155.285 127.475C150.077 142.041 147.032 157.241 146.306 172.759H257.31C256.568 157.241 253.538 142.041 248.33 127.475H155.285ZM265.058 127.475C269.808 142.101 272.428 157.302 273.106 172.759H320.102C318.965 156.502 314.31 141.15 306.735 127.475H265.058ZM168.478 71.8193C143.907 78.8083 122.729 93.2547 107.658 112.38H144.175C150.314 98.0397 158.551 84.4689 168.478 71.8193ZM202.139 67.0947C198.919 67.0947 195.779 67.3214 192.639 67.5479C179.635 81.088 169.235 96.2133 161.55 112.38H242.064C234.363 96.1982 223.948 81.0577 210.944 67.5176C208.025 67.3213 205.105 67.0947 202.139 67.0947ZM234.995 71.623C245 84.3329 253.269 97.9643 259.455 112.38H296.604C281.359 93.0585 259.897 78.5214 234.995 71.623Z" fill="url(#paint1_linear_3_38)"/>
</g>
<path d="M52 248.195C95.1315 248.195 138.982 291.02 138.982 333.844H110.228C110.227 305.295 80.7543 276.746 52 276.746V248.195ZM52 191.098C138.263 191.098 196.491 248.196 196.491 333.844H167.736C167.736 262.471 109.509 219.648 52 219.648V191.098ZM52 134C167.018 134 254 219.647 254 333.844H225.245C225.245 233.922 152.64 162.551 52 162.551V134Z" fill="#F1EEE9"/>
<defs>
<filter id="filter0_d_3_38" x="65.9307" y="50" width="276.347" height="264.079" filterUnits="userSpaceOnUse" color-interpolation-filters="sRGB">
<feFlood flood-opacity="0" result="BackgroundImageFix"/>
<feColorMatrix in="SourceAlpha" type="matrix" values="0 0 0 0 0 0 0 0 0 0 0 0 0 0 0 0 0 0 127 0" result="hardAlpha"/>
<feOffset dy="4"/>
<feGaussianBlur stdDeviation="3"/>
<feComposite in2="hardAlpha" operator="out"/>
<feColorMatrix type="matrix" values="0 0 0 0 0 0 0 0 0 0 0 0 0 0 0 0 0 0 0.25 0"/>
<feBlend mode="normal" in2="BackgroundImageFix" result="effect1_dropShadow_3_38"/>
<feBlend mode="normal" in="SourceGraphic" in2="effect1_dropShadow_3_38" result="shape"/>
</filter>
<linearGradient id="paint0_linear_3_38" x1="372.106" y1="70" x2="-13.6288" y2="314.579" gradientUnits="userSpaceOnUse">
<stop stop-color="white"/>
<stop offset="1" stop-color="#01C9FF"/>
</linearGradient>
<linearGradient id="paint1_linear_3_38" x1="470.188" y1="34.5066" x2="-2.2139" y2="381.52" gradientUnits="userSpaceOnUse">
<stop stop-color="#D9D9D9"/>
<stop offset="1" stop-color="#00C8FF"/>
</linearGradient>
</defs>
</svg>
