<svg width="804" height="804" viewBox="0 0 804 804" fill="none" xmlns="http://www.w3.org/2000/svg">
<path d="M17 101C17 63.4446 47.4446 33 85 33H719C756.555 33 787 63.4446 787 101V713C787 750.555 756.555 781 719 781H85C47.4446 781 17 750.555 17 713V101Z" fill="#343232"/>
<path d="M15 81C15 47.8629 41.8629 21 75 21H718C751.137 21 778 47.8629 778 81V704C778 737.137 751.137 764 718 764H75C41.8629 764 15 737.137 15 704V81Z" fill="url(#paint0_radial_203_309)"/>
<path d="M30 95C30 68.4904 51.4903 47 78 47H715C741.51 47 763 68.4903 763 95V700C763 726.51 741.51 748 715 748H78C51.4903 748 30 726.51 30 700V95Z" fill="#D8D9D4"/>
<path d="M396.286 34C591.867 34 751.053 186.01 751.054 372.862C751.054 525.476 644.89 654.845 499.396 697.133C498.608 683.669 497.037 670.091 494.694 656.472C555.668 637.109 608.185 600.293 646.126 552.261H547.709C533.448 585.395 514.928 616.992 492.89 646.739C489.415 629.263 484.673 611.749 478.68 594.348C487.16 580.666 494.844 566.619 501.715 552.261H461.613C455.31 538.8 448.243 525.486 440.417 512.395H518.368C532.183 473.924 540.197 433.778 542.242 392.796H338.52C320.967 377.949 302.699 364.652 283.938 352.93H542.2C540.239 311.947 532.225 271.802 518.451 233.331H272.368C260.758 265.759 253.21 299.377 249.976 333.683C236.788 326.948 223.433 320.958 209.98 315.72C213.438 287.713 219.444 260.157 228.168 233.331H119.651C109.788 251.077 101.799 269.892 95.8711 289.533C81.2469 288.496 66.7472 288.376 52.4648 289.183C91.5677 142.667 230.887 34 396.286 34ZM583.979 392.796C582.143 433.619 575.172 473.764 562.567 512.395H672.922C692.997 476.276 705.31 435.732 708.273 392.796H583.979ZM562.693 233.331C575.256 271.961 582.185 312.107 583.979 352.93H708.273C705.268 309.994 692.956 269.45 672.922 233.331H562.693ZM307.261 86.3447C242.276 104.803 186.263 142.954 146.404 193.465H242.984C259.22 155.592 281.008 119.753 307.261 86.3447ZM396.286 73.8662C387.772 73.8662 379.466 74.4645 371.16 75.0625C336.769 110.822 309.264 150.768 288.938 193.465H501.882C481.514 150.728 453.967 110.742 419.575 74.9824C411.854 74.4642 404.133 73.8662 396.286 73.8662ZM483.184 85.8262C509.645 119.393 531.515 155.393 547.876 193.465H646.126C605.808 142.436 549.045 104.045 483.184 85.8262Z" fill="#2D2C2C"/>
<path d="M393.286 32C588.867 32 748.053 184.01 748.054 370.862C748.054 523.476 641.89 652.845 496.396 695.133C495.608 681.669 494.037 668.091 491.694 654.472C552.668 635.109 605.185 598.293 643.126 550.261H544.709C530.448 583.395 511.928 614.992 489.89 644.739C486.415 627.263 481.673 609.749 475.68 592.348C484.16 578.666 491.844 564.619 498.715 550.261H458.613C452.31 536.8 445.243 523.486 437.417 510.395H515.368C529.183 471.924 537.197 431.778 539.242 390.796H335.52C317.967 375.949 299.699 362.652 280.938 350.93H539.2C537.239 309.947 529.225 269.802 515.451 231.331H269.368C257.758 263.759 250.21 297.377 246.976 331.683C233.788 324.948 220.433 318.958 206.98 313.72C210.438 285.713 216.444 258.157 225.168 231.331H116.651C106.788 249.077 98.7986 267.892 92.8711 287.533C78.2469 286.496 63.7472 286.376 49.4648 287.183C88.5677 140.667 227.887 32 393.286 32ZM580.979 390.796C579.143 431.619 572.172 471.764 559.567 510.395H669.922C689.997 474.276 702.31 433.732 705.273 390.796H580.979ZM559.693 231.331C572.256 269.961 579.185 310.107 580.979 350.93H705.273C702.268 307.994 689.956 267.45 669.922 231.331H559.693ZM304.261 84.3447C239.276 102.803 183.263 140.954 143.404 191.465H239.984C256.22 153.592 278.008 117.753 304.261 84.3447ZM393.286 71.8662C384.772 71.8662 376.466 72.4645 368.16 73.0625C333.769 108.822 306.264 148.768 285.938 191.465H498.882C478.514 148.728 450.967 108.742 416.575 72.9824C408.854 72.4642 401.133 71.8662 393.286 71.8662ZM480.184 83.8262C506.645 117.393 528.515 153.393 544.876 191.465H643.126C602.808 140.436 546.045 102.045 480.184 83.8262Z" fill="url(#paint1_linear_203_309)"/>
<path d="M13.4639 568.283C112.752 568.283 213.695 666.643 213.695 765H147.503C147.503 699.428 79.6561 633.858 13.4639 633.858V568.283ZM13.4639 437.142C212.041 437.142 346.079 568.286 346.079 765H279.888C279.888 601.071 145.848 502.717 13.4639 502.717V437.142ZM13.4639 306C278.233 306 478.464 502.714 478.464 765H412.271C412.271 535.5 245.137 371.575 13.4639 371.575V306Z" fill="#2D2C2C"/>
<path d="M13.4639 564.748C112.31 564.748 212.805 662.891 212.805 761.032H146.906C146.906 695.605 79.3615 630.179 13.4639 630.179V564.748ZM13.4639 433.896C211.157 433.896 344.599 564.751 344.6 761.032H278.702C278.702 597.464 145.259 499.326 13.4639 499.326V433.896ZM13.4639 303.042C277.054 303.042 476.394 499.323 476.395 761.032H410.497C410.497 532.037 244.106 368.473 13.4639 368.473V303.042Z" fill="#F36C35"/>
<defs>
<radialGradient id="paint0_radial_203_309" cx="0" cy="0" r="1" gradientTransform="matrix(50.5809 808.065 -829.816 49.8132 396.5 392.5)" gradientUnits="userSpaceOnUse">
<stop stop-color="white"/>
<stop offset="1" stop-color="white"/>
</radialGradient>
<linearGradient id="paint1_linear_203_309" x1="405.986" y1="32" x2="405.986" y2="678.726" gradientUnits="userSpaceOnUse">
<stop stop-color="#8D9191"/>
<stop offset="1" stop-color="#161616"/>
</linearGradient>
</defs>
</svg>
