<svg width="846" height="846" viewBox="0 0 846 846" fill="none" xmlns="http://www.w3.org/2000/svg">
<path d="M38 87C38 49.4447 68.4446 19 106 19H740C777.555 19 808 49.4446 808 87V754C808 791.555 777.555 822 740 822H106C68.4446 822 38 791.555 38 754V87Z" fill="#343232"/>
<path d="M36 76C36 42.8629 62.8629 16 96 16H739C772.137 16 799 42.8629 799 76V752C799 785.137 772.137 812 739 812H96C62.8629 812 36 785.137 36 752V76Z" fill="url(#paint0_radial_202_252)"/>
<path d="M51 143.001C51 116.491 72.4903 95.0005 99 95.0005H736C762.51 95.0005 784 116.491 784 143V748C784 774.51 762.51 796 736 796H99C72.4903 796 51 774.51 51 748V143.001Z" fill="#D8D9D4"/>
<circle cx="625" cy="63.0005" r="15" fill="#02C94A" stroke="#41D675" stroke-width="2"/>
<mask id="path-5-inside-1_202_252" fill="white">
<path fill-rule="evenodd" clip-rule="evenodd" d="M628.146 58.5598C628.698 58.5598 629.146 59.0076 629.146 59.5597L629.146 63.56C629.146 64.1121 628.699 64.5596 628.146 64.5599C627.594 64.5599 627.147 64.1123 627.147 63.56L627.147 62.0947L626.337 62.904C625.917 63.324 625.236 63.3234 624.816 62.9033C624.396 62.4832 624.396 61.8028 624.816 61.3827L625.64 60.5589L624.146 60.5596C623.594 60.5596 623.146 60.112 623.146 59.5597C623.146 59.0076 623.594 58.5598 624.146 58.5598L628.146 58.5598Z"/>
</mask>
<path fill-rule="evenodd" clip-rule="evenodd" d="M628.146 58.5598C628.698 58.5598 629.146 59.0076 629.146 59.5597L629.146 63.56C629.146 64.1121 628.699 64.5596 628.146 64.5599C627.594 64.5599 627.147 64.1123 627.147 63.56L627.147 62.0947L626.337 62.904C625.917 63.324 625.236 63.3234 624.816 62.9033C624.396 62.4832 624.396 61.8028 624.816 61.3827L625.64 60.5589L624.146 60.5596C623.594 60.5596 623.146 60.112 623.146 59.5597C623.146 59.0076 623.594 58.5598 624.146 58.5598L628.146 58.5598Z" fill="#186902"/>
<path d="M629.146 59.5597L629.246 59.5597L629.246 59.5597L629.146 59.5597ZM629.146 63.56H629.246L629.246 63.56L629.146 63.56ZM628.146 64.5599V64.6599H628.147L628.146 64.5599ZM627.147 63.56H627.047H627.147ZM627.147 62.0947H627.247L627.247 61.8533L627.076 62.024L627.147 62.0947ZM626.337 62.904L626.408 62.9747L626.408 62.9747L626.337 62.904ZM624.816 62.9033L624.745 62.974L624.745 62.974L624.816 62.9033ZM624.816 61.3827L624.745 61.312L624.745 61.312L624.816 61.3827ZM625.64 60.5589L625.711 60.6296L625.881 60.4588L625.64 60.4589L625.64 60.5589ZM624.146 60.5596V60.6596L624.146 60.6596L624.146 60.5596ZM623.146 59.5597L623.046 59.5597L623.046 59.5597L623.146 59.5597ZM628.146 58.5598L628.146 58.6598C628.643 58.6598 629.046 59.0628 629.046 59.5598L629.146 59.5597L629.246 59.5597C629.245 58.9524 628.753 58.4598 628.146 58.4598L628.146 58.5598ZM629.146 59.5597L629.046 59.5597L629.046 63.56L629.146 63.56L629.246 63.56L629.246 59.5597L629.146 59.5597ZM629.146 63.56H629.046C629.046 64.0568 628.643 64.4597 628.146 64.4599L628.146 64.5599L628.147 64.6599C628.754 64.6596 629.246 64.1674 629.246 63.56H629.146ZM628.146 64.5599V64.4599C627.649 64.4599 627.247 64.057 627.247 63.56H627.147H627.047C627.047 64.1675 627.539 64.6599 628.146 64.6599V64.5599ZM627.147 63.56H627.247L627.247 62.0947H627.147H627.047L627.047 63.56H627.147ZM627.147 62.0947L627.076 62.024L626.267 62.8333L626.337 62.904L626.408 62.9747L627.217 62.1654L627.147 62.0947ZM626.337 62.904L626.267 62.8333C625.886 63.2141 625.268 63.2137 624.887 62.8326L624.816 62.9033L624.745 62.974C625.204 63.4331 625.949 63.4338 626.408 62.9747L626.337 62.904ZM624.816 62.9033L624.887 62.8326C624.506 62.4515 624.506 61.8345 624.887 61.4534L624.816 61.3827L624.745 61.312C624.286 61.7712 624.286 62.5148 624.745 62.974L624.816 62.9033ZM624.816 61.3827L624.887 61.4534L625.711 60.6296L625.64 60.5589L625.569 60.4882L624.745 61.312L624.816 61.3827ZM625.64 60.5589L625.64 60.4589L624.146 60.4596L624.146 60.5596L624.146 60.6596L625.64 60.6589L625.64 60.5589ZM624.146 60.5596L624.146 60.4596C623.649 60.4596 623.246 60.0568 623.246 59.5597L623.146 59.5597L623.046 59.5597C623.046 60.1672 623.539 60.6596 624.146 60.6596V60.5596ZM623.146 59.5597L623.246 59.5598C623.246 59.0628 623.649 58.6598 624.146 58.6598L624.146 58.5598L624.146 58.4598C623.539 58.4598 623.047 58.9524 623.046 59.5597L623.146 59.5597ZM624.146 58.5598L624.146 58.6598L628.146 58.6598L628.146 58.5598L628.146 58.4598L624.146 58.4598L624.146 58.5598Z" fill="#184B00" mask="url(#path-5-inside-1_202_252)"/>
<mask id="path-7-inside-2_202_252" fill="white">
<path fill-rule="evenodd" clip-rule="evenodd" d="M621.104 67.3113C620.552 67.3113 620.104 66.8635 620.104 66.3114L620.104 62.3111C620.104 61.759 620.551 61.3115 621.104 61.3112C621.656 61.3112 622.103 61.7588 622.103 62.3111L622.103 63.7764L622.913 62.9671C623.333 62.5471 624.014 62.5477 624.434 62.9678C624.854 63.3879 624.854 64.0683 624.434 64.4884L623.61 65.3122L625.104 65.3115C625.656 65.3115 626.104 65.7591 626.104 66.3114C626.104 66.8635 625.656 67.3113 625.104 67.3113L621.104 67.3113Z"/>
</mask>
<path fill-rule="evenodd" clip-rule="evenodd" d="M621.104 67.3113C620.552 67.3113 620.104 66.8635 620.104 66.3114L620.104 62.3111C620.104 61.759 620.551 61.3115 621.104 61.3112C621.656 61.3112 622.103 61.7588 622.103 62.3111L622.103 63.7764L622.913 62.9671C623.333 62.5471 624.014 62.5477 624.434 62.9678C624.854 63.3879 624.854 64.0683 624.434 64.4884L623.61 65.3122L625.104 65.3115C625.656 65.3115 626.104 65.7591 626.104 66.3114C626.104 66.8635 625.656 67.3113 625.104 67.3113L621.104 67.3113Z" fill="#186902"/>
<path d="M620.104 66.3114L620.004 66.3114L620.004 66.3114L620.104 66.3114ZM620.104 62.3111L620.004 62.3111L620.004 62.3111L620.104 62.3111ZM621.104 61.3112L621.104 61.2112L621.103 61.2112L621.104 61.3112ZM622.103 62.3111L622.203 62.3111L622.103 62.3111ZM622.103 63.7764L622.003 63.7764L622.003 64.0178L622.174 63.8471L622.103 63.7764ZM622.913 62.9671L622.842 62.8964L622.842 62.8964L622.913 62.9671ZM624.434 62.9678L624.505 62.8971L624.505 62.8971L624.434 62.9678ZM624.434 64.4884L624.505 64.5591L624.505 64.5591L624.434 64.4884ZM623.61 65.3122L623.539 65.2415L623.369 65.4123L623.61 65.4122L623.61 65.3122ZM625.104 65.3115L625.104 65.2115L625.104 65.2115L625.104 65.3115ZM626.104 66.3114L626.204 66.3114L626.204 66.3114L626.104 66.3114ZM621.104 67.3113L621.104 67.2113C620.607 67.2113 620.204 66.8083 620.204 66.3113L620.104 66.3114L620.004 66.3114C620.005 66.9187 620.497 67.4113 621.104 67.4113L621.104 67.3113ZM620.104 66.3114L620.204 66.3113L620.204 62.3111L620.104 62.3111L620.004 62.3111L620.004 66.3114L620.104 66.3114ZM620.104 62.3111L620.204 62.3111C620.204 61.8143 620.607 61.4114 621.104 61.4112L621.104 61.3112L621.103 61.2112C620.496 61.2115 620.004 61.7037 620.004 62.3111L620.104 62.3111ZM621.104 61.3112L621.104 61.4112C621.601 61.4112 622.003 61.814 622.003 62.3111L622.103 62.3111L622.203 62.3111C622.203 61.7036 621.711 61.2112 621.104 61.2112L621.104 61.3112ZM622.103 62.3111L622.003 62.3111L622.003 63.7764L622.103 63.7764L622.203 63.7764L622.203 62.3111L622.103 62.3111ZM622.103 63.7764L622.174 63.8471L622.983 63.0378L622.913 62.9671L622.842 62.8964L622.033 63.7057L622.103 63.7764ZM622.913 62.9671L622.983 63.0378C623.364 62.6569 623.982 62.6574 624.363 63.0385L624.434 62.9678L624.505 62.8971C624.046 62.438 623.301 62.4373 622.842 62.8964L622.913 62.9671ZM624.434 62.9678L624.363 63.0385C624.744 63.4196 624.744 64.0366 624.363 64.4177L624.434 64.4884L624.505 64.5591C624.964 64.0999 624.964 63.3563 624.505 62.8971L624.434 62.9678ZM624.434 64.4884L624.363 64.4176L623.539 65.2415L623.61 65.3122L623.681 65.3829L624.505 64.5591L624.434 64.4884ZM623.61 65.3122L623.61 65.4122L625.104 65.4115L625.104 65.3115L625.104 65.2115L623.61 65.2122L623.61 65.3122ZM625.104 65.3115L625.104 65.4115C625.601 65.4115 626.004 65.8143 626.004 66.3114L626.104 66.3114L626.204 66.3114C626.204 65.7039 625.711 65.2115 625.104 65.2115L625.104 65.3115ZM626.104 66.3114L626.004 66.3113C626.004 66.8083 625.601 67.2113 625.104 67.2113L625.104 67.3113L625.104 67.4113C625.711 67.4113 626.203 66.9187 626.204 66.3114L626.104 66.3114ZM625.104 67.3113L625.104 67.2113L621.104 67.2113L621.104 67.3113L621.104 67.4113L625.104 67.4113L625.104 67.3113Z" fill="#184B00" mask="url(#path-7-inside-2_202_252)"/>
<circle cx="721" cy="63.0005" r="15" fill="#F50B14" stroke="#FA464B" stroke-width="2"/>
<mask id="path-10-inside-3_202_252" fill="white">
<path fill-rule="evenodd" clip-rule="evenodd" d="M718.237 67.1069C717.866 67.478 717.264 67.478 716.893 67.1069C716.522 66.7358 716.522 66.1333 716.893 65.7622L719.647 63.0093L716.893 60.2554C716.522 59.8842 716.522 59.2818 716.893 58.9106C717.264 58.5395 717.866 58.5395 718.237 58.9106L720.991 61.6645L723.745 58.9106C724.116 58.5397 724.718 58.5396 725.089 58.9106C725.46 59.2817 725.46 59.8832 725.089 60.2544L722.335 63.0093L725.089 65.7632C725.46 66.1343 725.46 66.7359 725.089 67.1069C724.718 67.478 724.116 67.4778 723.745 67.1069L720.991 64.354L718.237 67.1069Z"/>
</mask>
<path fill-rule="evenodd" clip-rule="evenodd" d="M718.237 67.1069C717.866 67.478 717.264 67.478 716.893 67.1069C716.522 66.7358 716.522 66.1333 716.893 65.7622L719.647 63.0093L716.893 60.2554C716.522 59.8842 716.522 59.2818 716.893 58.9106C717.264 58.5395 717.866 58.5395 718.237 58.9106L720.991 61.6645L723.745 58.9106C724.116 58.5397 724.718 58.5396 725.089 58.9106C725.46 59.2817 725.46 59.8832 725.089 60.2544L722.335 63.0093L725.089 65.7632C725.46 66.1343 725.46 66.7359 725.089 67.1069C724.718 67.478 724.116 67.4778 723.745 67.1069L720.991 64.354L718.237 67.1069Z" fill="#AE0001"/>
<path d="M718.237 67.1069L718.167 67.0362L718.167 67.0362L718.237 67.1069ZM716.893 67.1069L716.822 67.1776L716.822 67.1776L716.893 67.1069ZM716.893 65.7622L716.822 65.6915L716.822 65.6915L716.893 65.7622ZM719.647 63.0093L719.717 63.08L719.788 63.0093L719.717 62.9386L719.647 63.0093ZM716.893 60.2554L716.822 60.3261L716.893 60.2554ZM716.893 58.9106L716.822 58.8399V58.8399L716.893 58.9106ZM718.237 58.9106L718.308 58.8399L718.237 58.9106ZM720.991 61.6645L720.921 61.7352L720.991 61.806L721.062 61.7352L720.991 61.6645ZM723.745 58.9106L723.675 58.8399L723.675 58.8399L723.745 58.9106ZM725.089 58.9106L725.16 58.8399L725.16 58.8399L725.089 58.9106ZM725.089 60.2544L725.16 60.3251L725.16 60.3251L725.089 60.2544ZM722.335 63.0093L722.264 62.9386L722.194 63.0093L722.264 63.08L722.335 63.0093ZM725.089 65.7632L725.16 65.6925L725.16 65.6925L725.089 65.7632ZM725.089 67.1069L725.16 67.1776L725.16 67.1776L725.089 67.1069ZM723.745 67.1069L723.675 67.1776L723.675 67.1777L723.745 67.1069ZM720.991 64.354L721.062 64.2833L720.991 64.2126L720.921 64.2833L720.991 64.354ZM718.237 67.1069L718.167 67.0362C717.835 67.3683 717.295 67.3683 716.963 67.0362L716.893 67.1069L716.822 67.1776C717.232 67.5878 717.898 67.5878 718.308 67.1776L718.237 67.1069ZM716.893 67.1069L716.963 67.0362C716.631 66.7041 716.631 66.165 716.963 65.8329L716.893 65.7622L716.822 65.6915C716.412 66.1017 716.412 66.7674 716.822 67.1776L716.893 67.1069ZM716.893 65.7622L716.963 65.8329L719.717 63.08L719.647 63.0093L719.576 62.9385L716.822 65.6915L716.893 65.7622ZM719.647 63.0093L719.717 62.9386L716.963 60.1846L716.893 60.2554L716.822 60.3261L719.576 63.08L719.647 63.0093ZM716.893 60.2554L716.963 60.1846C716.631 59.8526 716.631 59.3134 716.963 58.9813L716.893 58.9106L716.822 58.8399C716.412 59.2501 716.412 59.9159 716.822 60.3261L716.893 60.2554ZM716.893 58.9106L716.963 58.9813C717.295 58.6493 717.835 58.6493 718.167 58.9813L718.237 58.9106L718.308 58.8399C717.898 58.4297 717.232 58.4297 716.822 58.8399L716.893 58.9106ZM718.237 58.9106L718.167 58.9813L720.921 61.7352L720.991 61.6645L721.062 61.5938L718.308 58.8399L718.237 58.9106ZM720.991 61.6645L721.062 61.7352L723.816 58.9813L723.745 58.9106L723.675 58.8399L720.921 61.5938L720.991 61.6645ZM723.745 58.9106L723.816 58.9814C724.148 58.6495 724.686 58.6494 725.018 58.9813L725.089 58.9106L725.16 58.8399C724.75 58.4298 724.085 58.43 723.675 58.8399L723.745 58.9106ZM725.089 58.9106L725.018 58.9813C725.35 59.3133 725.35 59.8516 725.018 60.1837L725.089 60.2544L725.16 60.3251C725.57 59.9149 725.57 59.2501 725.16 58.8399L725.089 58.9106ZM725.089 60.2544L725.018 60.1837L722.264 62.9386L722.335 63.0093L722.406 63.08L725.16 60.3251L725.089 60.2544ZM722.335 63.0093L722.264 63.08L725.018 65.8339L725.089 65.7632L725.16 65.6925L722.406 62.9386L722.335 63.0093ZM725.089 65.7632L725.018 65.8339C725.35 66.166 725.35 66.7042 725.018 67.0362L725.089 67.1069L725.16 67.1776C725.57 66.7675 725.57 66.1027 725.16 65.6925L725.089 65.7632ZM725.089 67.1069L725.018 67.0362C724.686 67.3682 724.148 67.3681 723.816 67.0362L723.745 67.1069L723.675 67.1777C724.085 67.5875 724.75 67.5878 725.16 67.1776L725.089 67.1069ZM723.745 67.1069L723.816 67.0362L721.062 64.2833L720.991 64.354L720.921 64.4247L723.675 67.1776L723.745 67.1069ZM720.991 64.354L720.921 64.2833L718.167 67.0362L718.237 67.1069L718.308 67.1776L721.062 64.4247L720.991 64.354Z" fill="#890000" mask="url(#path-10-inside-3_202_252)"/>
<circle cx="673" cy="63.0005" r="15" transform="rotate(-180 673 63.0005)" fill="#FEC303" stroke="#FECF47" stroke-width="2"/>
<rect x="678.745" y="64.1546" width="11.4906" height="1.8007" rx="0.900348" transform="rotate(-180 678.745 64.1546)" fill="#A26E01" stroke="#7C5400" stroke-width="0.1"/>
<path d="M417.286 81.9995C612.867 81.9995 772.053 234.009 772.054 420.862C772.054 573.475 665.89 702.844 520.396 745.132C519.608 731.668 518.037 718.09 515.694 704.471C576.668 685.109 629.185 648.293 667.126 600.26H568.709C554.448 633.395 535.928 664.992 513.89 694.739C510.415 677.263 505.673 659.748 499.68 642.347C508.16 628.666 515.844 614.619 522.715 600.26H482.613C476.31 586.799 469.243 573.485 461.417 560.394H539.368C553.183 521.923 561.197 481.778 563.242 440.795H359.52C341.967 425.948 323.699 412.651 304.938 400.929H563.2C561.239 359.947 553.225 319.801 539.451 281.331H293.368C281.758 313.759 274.21 347.376 270.976 381.682C257.788 374.948 244.433 368.958 230.98 363.719C234.438 335.713 240.444 308.156 249.168 281.331H140.651C130.788 299.077 122.799 317.891 116.871 337.533C102.247 336.495 87.7472 336.376 73.4648 337.182C112.568 190.667 251.887 81.9995 417.286 81.9995ZM604.979 440.795C603.143 481.618 596.172 521.764 583.567 560.394H693.922C713.997 524.275 726.31 483.731 729.273 440.795H604.979ZM583.693 281.331C596.256 319.961 603.185 360.106 604.979 400.929H729.273C726.268 357.993 713.956 317.449 693.922 281.331H583.693ZM328.261 134.344C263.276 152.802 207.263 190.954 167.404 241.464H263.984C280.22 203.591 302.008 167.752 328.261 134.344ZM417.286 121.866C408.772 121.866 400.466 122.464 392.16 123.062C357.769 158.822 330.264 198.768 309.938 241.464H522.882C502.514 198.728 474.967 158.742 440.575 122.982C432.854 122.464 425.133 121.866 417.286 121.866ZM504.184 133.826C530.645 167.393 552.515 203.392 568.876 241.464H667.126C626.808 190.436 570.045 152.045 504.184 133.826Z" fill="#2D2C2C"/>
<path d="M414.286 79.9995C609.867 79.9995 769.053 232.009 769.054 418.862C769.054 571.475 662.89 700.844 517.396 743.132C516.608 729.668 515.037 716.09 512.694 702.471C573.668 683.109 626.185 646.293 664.126 598.26H565.709C551.448 631.395 532.928 662.992 510.89 692.739C507.415 675.263 502.673 657.748 496.68 640.347C505.16 626.666 512.844 612.619 519.715 598.26H479.613C473.31 584.799 466.243 571.485 458.417 558.394H536.368C550.183 519.923 558.197 479.778 560.242 438.795H356.52C338.967 423.948 320.699 410.651 301.938 398.929H560.2C558.239 357.947 550.225 317.801 536.451 279.331H290.368C278.758 311.759 271.21 345.376 267.976 379.682C254.788 372.948 241.433 366.958 227.98 361.719C231.438 333.713 237.444 306.156 246.168 279.331H137.651C127.788 297.077 119.799 315.891 113.871 335.533C99.2469 334.495 84.7472 334.376 70.4648 335.182C109.568 188.667 248.887 79.9995 414.286 79.9995ZM601.979 438.795C600.143 479.618 593.172 519.764 580.567 558.394H690.922C710.997 522.275 723.31 481.731 726.273 438.795H601.979ZM580.693 279.331C593.256 317.961 600.185 358.106 601.979 398.929H726.273C723.268 355.993 710.956 315.449 690.922 279.331H580.693ZM325.261 132.344C260.276 150.802 204.263 188.954 164.404 239.464H260.984C277.22 201.591 299.008 165.752 325.261 132.344ZM414.286 119.866C405.772 119.866 397.466 120.464 389.16 121.062C354.769 156.822 327.264 196.768 306.938 239.464H519.882C499.514 196.728 471.967 156.742 437.575 120.982C429.854 120.464 422.133 119.866 414.286 119.866ZM501.184 131.826C527.645 165.393 549.515 201.392 565.876 239.464H664.126C623.808 188.436 567.045 150.045 501.184 131.826Z" fill="url(#paint1_linear_202_252)"/>
<path d="M34.4639 616.283C133.752 616.283 234.695 714.642 234.695 813H168.503C168.503 747.428 100.656 681.858 34.4639 681.858V616.283ZM34.4639 485.141C233.041 485.141 367.079 616.285 367.079 813H300.888C300.888 649.071 166.848 550.716 34.4639 550.716V485.141ZM34.4639 354C299.233 354 499.464 550.714 499.464 813H433.271C433.271 583.499 266.137 419.575 34.4639 419.575V354Z" fill="#2D2C2C"/>
<path d="M34.4639 612.748C133.31 612.748 233.805 710.891 233.805 809.032H167.906C167.906 743.604 100.361 678.178 34.4639 678.178V612.748ZM34.4639 481.895C232.157 481.895 365.599 612.75 365.6 809.032H299.702C299.702 645.463 166.259 547.326 34.4639 547.326V481.895ZM34.4639 351.042C298.054 351.042 497.394 547.323 497.395 809.032H431.497C431.497 580.036 265.106 416.472 34.4639 416.472V351.042Z" fill="#F36C35"/>
<defs>
<radialGradient id="paint0_radial_202_252" cx="0" cy="0" r="1" gradientTransform="matrix(50.5809 865.706 -829.816 53.3665 417.5 414)" gradientUnits="userSpaceOnUse">
<stop stop-color="white"/>
<stop offset="1" stop-color="white"/>
</radialGradient>
<linearGradient id="paint1_linear_202_252" x1="426.986" y1="79.9995" x2="426.986" y2="726.726" gradientUnits="userSpaceOnUse">
<stop stop-color="#8D9191"/>
<stop offset="1" stop-color="#161616"/>
</linearGradient>
</defs>
</svg>
